<?xml version="1.0" standalone="no"?>
<!DOCTYPE svg PUBLIC "-//W3C//DTD SVG 20010904//EN"
 "http://www.w3.org/TR/2001/REC-SVG-20010904/DTD/svg10.dtd">
<svg version="1.0" xmlns="http://www.w3.org/2000/svg"
 width="1000.000000pt" height="1000.000000pt" viewBox="0 0 1000.000000 1000.000000"
 preserveAspectRatio="xMidYMid meet">
<metadata>
Created by potrace 1.11, written by Peter Selinger 2001-2013
</metadata>
<g transform="translate(0.000000,1000.000000) scale(0.100000,-0.100000)"
fill="#000000" stroke="none">
<path d="M4978 8885 c-1 -2 -40 -6 -85 -10 -45 -3 -92 -8 -105 -10 -24 -4
-136 -24 -178 -32 -209 -38 -450 -125 -645 -232 -64 -35 -245 -153 -267 -174
-8 -6 -38 -32 -68 -57 -327 -266 -589 -664 -741 -1125 -61 -183 -119 -437
-144 -620 -3 -22 -7 -53 -10 -70 -3 -16 -7 -52 -10 -80 -3 -27 -7 -63 -10 -80
-16 -114 -20 -372 -20 -1195 0 -813 4 -1050 20 -1185 5 -46 25 -205 31 -250 3
-22 10 -59 15 -83 5 -23 12 -59 15 -80 3 -20 7 -45 10 -54 3 -9 7 -25 9 -35
34 -164 107 -399 171 -549 200 -471 521 -844 926 -1077 133 -76 367 -176 475
-202 10 -3 54 -14 98 -25 119 -30 252 -52 400 -67 142 -14 716 -5 745 12 3 1
32 6 65 10 32 3 62 8 65 10 3 1 27 6 54 9 80 11 307 72 412 112 229 85 424
194 596 333 269 219 473 499 613 841 83 204 168 545 190 765 4 33 8 70 10 83
2 13 7 71 10 130 4 59 8 117 10 130 l4 22 -720 0 -719 0 -1 -27 c-2 -79 -16
-268 -24 -323 -2 -14 -6 -45 -9 -70 -3 -25 -8 -56 -11 -70 -3 -14 -10 -52 -16
-84 -16 -87 -72 -252 -109 -321 -63 -116 -127 -182 -250 -256 -48 -30 -183
-81 -242 -93 -19 -4 -78 -15 -113 -21 -16 -3 -100 -8 -185 -11 -190 -7 -321 9
-459 56 -341 115 -513 386 -596 939 -8 56 -18 129 -21 164 -3 34 -7 73 -9 86
-15 91 -20 408 -20 1256 0 855 4 1080 20 1200 2 16 7 57 10 90 3 33 13 101 21
150 71 419 207 679 434 830 85 57 218 113 305 129 17 3 44 8 60 12 65 14 360
12 450 -2 349 -56 531 -186 639 -458 27 -68 69 -216 80 -286 37 -238 37 -232
52 -460 3 -52 10 -97 14 -100 4 -3 327 -5 717 -5 697 1 708 1 707 20 -32 571
-199 1150 -439 1525 -114 179 -272 362 -410 476 -33 27 -62 52 -65 55 -13 14
-183 122 -250 158 -215 115 -521 213 -771 245 -19 3 -56 8 -84 11 -27 4 -68 9
-90 11 -51 6 -552 14 -557 9z"/>
</g>
</svg>
